# xmcd
#
# Track frame offsets:
#        150
#        19417
#        42010
#        62985
#        81852
#        101905
#        123370
#        142792
#        150657
#        167842
#        186592
#        205570
#        226682
#        243477
#        260072
#        283105
#
# Disc length: 4085 seconds
#
# Revision: 0
# Processed by: cddbd v1.5.1PL0 Copyright (c) Steve Scherf et al.
# Submitted via: ExactAudioCopy v0.95a5
#
DISCID=e10ff310
DTITLE=Elisha La'Verne - Sensuous
DYEAR=2002
DGENRE=R&B
TTITLE0=Come On
TTITLE1=If I
TTITLE2=Creepin' Out (Full Crew Mix)
TTITLE3=Skin
TTITLE4=Birds
TTITLE5=He's Real
TTITLE6=Morning After The Night Before
TTITLE7=Poetry
TTITLE8=What Would You Do
TTITLE9=Brighter Side
TTITLE10=High
TTITLE11=Issues
TTITLE12=Caught Up
TTITLE13=Woman's World
TTITLE14=Love Divine
TTITLE15=Skin (brownsuger Mix)
EXTD=
EXTT0=
EXTT1=
EXTT2=
EXTT3=
EXTT4=
EXTT5=
EXTT6=
EXTT7=
EXTT8=
EXTT9=
EXTT10=
EXTT11=
EXTT12=
EXTT13=
EXTT14=
EXTT15=
PLAYORDER=
